<svg xmlns="http://www.w3.org/2000/svg" xmlns:xlink="http://www.w3.org/1999/xlink" width="6912" zoomAndPan="magnify" viewBox="0 0 5184 2592.000001" height="3456" preserveAspectRatio="xMidYMid meet" version="1.0"><defs><g><g id="id1"/></g><clipPath id="id2"><path d="M 43.046875 307 L 2165.480469 307 L 2165.480469 2028 L 43.046875 2028 Z M 43.046875 307 " clip-rule="nonzero"/></clipPath><clipPath id="id3"><path d="M 1909.164062 1254.742188 C 1909.164062 1183.824219 1966.5625 1126.757812 2037.488281 1126.757812 C 2108.410156 1126.757812 2165.480469 1184.152344 2165.480469 1254.742188 C 2165.480469 1325.660156 2108.082031 1382.722656 2037.488281 1382.722656 C 2015.386719 1382.722656 1994.273438 1377.117188 1976.128906 1367.21875 L 1883.765625 1503.117188 C 1905.535156 1522.25 1919.390625 1550.289062 1919.390625 1581.953125 C 1919.390625 1639.675781 1872.546875 1686.515625 1814.820312 1686.515625 C 1757.089844 1686.515625 1710.25 1639.675781 1710.25 1581.953125 C 1710.25 1542.371094 1732.351562 1507.738281 1765.007812 1490.253906 L 1738.949219 1424.285156 C 1733.011719 1425.605469 1726.742188 1426.261719 1720.472656 1426.261719 C 1674.621094 1426.261719 1637.675781 1388.992188 1637.675781 1343.472656 C 1637.675781 1297.621094 1674.953125 1260.347656 1720.472656 1260.347656 C 1728.0625 1260.347656 1735.648438 1261.339844 1742.578125 1263.316406 L 1796.347656 1143.910156 C 1783.152344 1133.6875 1774.574219 1117.855469 1774.574219 1100.042969 C 1774.574219 1069.367188 1799.316406 1044.628906 1829.992188 1044.628906 C 1843.519531 1044.628906 1855.722656 1049.246094 1865.289062 1057.492188 L 1961.613281 984.265625 C 1954.6875 971.730469 1950.730469 956.886719 1950.730469 941.382812 C 1950.730469 915.65625 1961.945312 892.234375 1979.429688 876.074219 L 1920.050781 788.664062 C 1908.835938 793.941406 1896.300781 796.910156 1883.105469 796.910156 C 1852.09375 796.910156 1825.046875 780.417969 1810.199219 756.007812 L 1719.816406 793.941406 C 1719.816406 795.261719 1720.144531 796.578125 1720.144531 797.570312 C 1720.144531 818.351562 1704.96875 835.503906 1685.175781 838.800781 L 1672.972656 926.539062 C 1703.320312 936.105469 1725.09375 964.472656 1725.09375 997.789062 C 1725.09375 1039.019531 1691.445312 1072.664062 1650.210938 1072.664062 C 1622.5 1072.664062 1598.417969 1057.492188 1585.222656 1035.0625 L 1478.015625 1074.644531 C 1478.015625 1074.972656 1478.015625 1075.304688 1478.015625 1075.960938 C 1478.015625 1098.0625 1460.199219 1115.875 1438.097656 1115.875 C 1435.789062 1115.875 1433.152344 1115.542969 1430.84375 1115.214844 L 1376.410156 1214.171875 C 1383.007812 1220.105469 1388.617188 1227.363281 1392.246094 1235.609375 L 1542.671875 1203.945312 C 1544.980469 1184.152344 1561.804688 1168.652344 1582.253906 1168.652344 C 1604.355469 1168.652344 1622.171875 1186.460938 1622.171875 1208.5625 C 1622.171875 1229.011719 1606.667969 1245.835938 1586.875 1248.144531 L 1542.671875 1459.25 C 1589.511719 1474.421875 1623.160156 1518.292969 1623.160156 1570.078125 C 1623.160156 1634.398438 1571.039062 1686.84375 1506.382812 1686.84375 C 1504.40625 1686.84375 1502.425781 1686.84375 1500.445312 1686.84375 L 1482.960938 1795.035156 C 1498.796875 1802.292969 1510.011719 1818.457031 1510.011719 1837.257812 C 1510.011719 1858.367188 1496.15625 1875.847656 1477.023438 1881.785156 L 1478.675781 1963.589844 C 1490.878906 1968.207031 1499.785156 1980.410156 1499.785156 1994.265625 C 1499.785156 2012.40625 1484.941406 2027.25 1466.796875 2027.25 C 1448.65625 2027.25 1433.8125 2012.40625 1433.8125 1994.265625 C 1433.8125 1990.96875 1434.46875 1987.667969 1435.460938 1984.371094 L 1377.730469 1936.210938 C 1370.472656 1941.160156 1361.566406 1944.128906 1351.671875 1944.128906 C 1326.269531 1944.128906 1305.816406 1923.675781 1305.816406 1898.277344 C 1305.816406 1880.136719 1316.375 1864.632812 1331.546875 1857.046875 L 1321.652344 1802.292969 C 1320.992188 1802.292969 1320.003906 1802.292969 1319.34375 1802.292969 C 1273.160156 1802.292969 1235.554688 1764.691406 1235.554688 1718.511719 C 1235.554688 1672.332031 1273.160156 1634.730469 1319.34375 1634.730469 C 1341.445312 1634.730469 1361.238281 1643.304688 1376.082031 1657.160156 L 1408.082031 1631.761719 C 1396.535156 1613.617188 1389.9375 1592.507812 1389.9375 1569.417969 C 1389.9375 1547.320312 1396.203125 1526.539062 1407.089844 1508.726562 L 1325.28125 1446.054688 C 1319.011719 1450.34375 1311.425781 1452.980469 1303.179688 1452.980469 C 1294.273438 1452.980469 1286.027344 1450.011719 1279.429688 1445.066406 L 1227.636719 1481.019531 C 1236.875 1497.839844 1241.820312 1516.972656 1241.820312 1537.421875 C 1241.820312 1602.734375 1189.042969 1655.507812 1123.726562 1655.507812 C 1068.304688 1655.507812 1022.125 1617.578125 1009.257812 1566.121094 L 920.851562 1578.324219 C 919.863281 1620.214844 885.554688 1653.859375 843.332031 1653.859375 C 800.445312 1653.859375 765.808594 1619.226562 765.808594 1576.34375 C 765.808594 1533.464844 800.445312 1498.832031 843.332031 1498.832031 C 851.246094 1498.832031 858.835938 1500.148438 865.761719 1502.128906 L 960.105469 1311.144531 C 936.027344 1294.984375 919.53125 1268.59375 916.5625 1238.25 L 838.710938 1235.609375 C 833.105469 1250.125 819.25 1260.347656 802.753906 1260.347656 C 798.46875 1260.347656 794.507812 1259.6875 790.550781 1258.371094 L 728.203125 1339.183594 C 747.664062 1358.3125 759.542969 1384.703125 759.542969 1414.058594 C 759.542969 1472.113281 712.367188 1519.28125 654.308594 1519.28125 C 605.488281 1519.28125 564.253906 1485.636719 552.378906 1440.445312 L 480.136719 1450.011719 C 478.816406 1491.242188 444.839844 1524.558594 403.273438 1524.558594 C 360.71875 1524.558594 326.414062 1490.253906 326.414062 1447.703125 C 326.414062 1407.460938 357.421875 1374.476562 397.007812 1371.179688 L 403.933594 1286.738281 C 390.078125 1280.800781 380.511719 1266.945312 380.511719 1250.785156 C 380.511719 1229.34375 397.996094 1211.53125 419.765625 1211.53125 C 424.714844 1211.53125 429.003906 1212.519531 433.292969 1213.839844 L 580.746094 1032.421875 C 577.117188 1026.484375 574.808594 1019.230469 574.808594 1011.640625 C 574.808594 1001.085938 579.097656 991.519531 585.695312 984.59375 L 562.933594 940.394531 C 551.386719 944.683594 539.183594 946.992188 526.316406 946.992188 C 507.84375 946.992188 490.359375 942.042969 475.515625 933.796875 L 386.78125 1056.832031 C 396.015625 1067.058594 401.625 1080.910156 401.625 1096.082031 C 401.625 1128.410156 375.234375 1154.796875 342.90625 1154.796875 C 336.308594 1154.796875 329.710938 1153.808594 323.773438 1151.5 L 231.078125 1302.570312 C 252.191406 1319.722656 265.386719 1345.78125 265.386719 1375.136719 C 265.386719 1426.921875 223.492188 1468.8125 171.699219 1468.8125 C 119.910156 1468.8125 78.015625 1426.921875 78.015625 1375.136719 C 78.015625 1332.917969 106.054688 1297.292969 144.320312 1285.417969 L 137.0625 1240.886719 C 136.402344 1240.886719 136.074219 1240.886719 135.414062 1240.886719 C 87.25 1240.886719 48.324219 1201.964844 48.324219 1153.808594 C 48.324219 1105.980469 86.921875 1067.058594 134.753906 1066.726562 L 140.03125 1028.132812 C 84.28125 1014.609375 42.71875 964.144531 42.71875 904.109375 C 42.71875 833.851562 99.785156 776.789062 170.050781 776.789062 C 228.4375 776.789062 277.921875 816.039062 292.765625 869.804688 L 421.085938 847.046875 C 421.085938 845.066406 421.085938 843.417969 421.085938 841.4375 C 421.085938 823.628906 425.707031 806.804688 433.292969 791.960938 L 338.617188 725.660156 C 328.0625 735.558594 313.875 741.496094 298.371094 741.496094 C 265.714844 741.496094 238.996094 714.777344 238.996094 682.121094 C 238.996094 649.464844 265.714844 622.75 298.371094 622.75 C 331.03125 622.75 357.75 649.464844 357.75 682.121094 C 357.75 690.367188 356.101562 697.953125 353.132812 704.882812 L 447.808594 771.179688 C 461.332031 756.007812 479.476562 744.792969 499.597656 739.515625 L 499.269531 643.53125 C 463.640625 637.59375 436.589844 606.914062 436.589844 569.644531 C 436.589844 528.410156 470.238281 494.765625 511.472656 494.765625 C 535.882812 494.765625 557.328125 506.3125 570.851562 524.125 L 690.597656 461.453125 C 687.628906 452.546875 685.980469 443.308594 685.980469 433.414062 C 685.980469 386.246094 724.246094 347.652344 771.746094 347.652344 C 818.917969 347.652344 857.515625 385.917969 857.515625 433.414062 C 857.515625 464.75 840.691406 492.457031 815.289062 507.300781 L 854.875 604.9375 C 861.144531 603.617188 867.410156 602.628906 874.339844 602.628906 C 889.84375 602.628906 904.6875 606.914062 917.222656 614.503906 L 1006.949219 505.652344 C 986.496094 484.542969 973.632812 455.84375 973.632812 424.179688 C 973.632812 359.859375 1025.753906 307.410156 1090.410156 307.410156 C 1154.734375 307.410156 1207.183594 359.527344 1207.183594 424.179688 C 1207.183594 452.875 1196.628906 479.265625 1179.476562 499.386719 L 1268.542969 593.0625 C 1273.820312 590.421875 1279.757812 589.105469 1286.027344 589.105469 C 1287.675781 589.105469 1289.324219 589.105469 1290.644531 589.433594 L 1338.144531 486.851562 C 1318.683594 473.328125 1305.816406 450.898438 1305.816406 425.167969 C 1305.816406 383.9375 1339.464844 350.292969 1380.699219 350.292969 C 1421.933594 350.292969 1455.582031 383.9375 1455.582031 425.167969 C 1455.582031 434.40625 1453.933594 443.308594 1450.964844 451.226562 L 1526.507812 495.097656 C 1545.308594 470.359375 1575.328125 454.195312 1608.644531 454.195312 C 1665.714844 454.195312 1711.898438 500.375 1711.898438 557.4375 C 1711.898438 571.292969 1709.257812 584.484375 1704.308594 596.359375 L 1815.808594 658.703125 C 1831.3125 638.582031 1855.722656 625.386719 1883.433594 625.386719 C 1930.605469 625.386719 1968.871094 663.648438 1968.871094 710.820312 C 1968.871094 735.558594 1958.316406 757.988281 1941.492188 773.492188 L 2000.871094 860.902344 C 2012.414062 855.292969 2025.609375 851.996094 2039.464844 851.996094 C 2088.289062 851.996094 2127.871094 891.578125 2127.871094 940.394531 C 2127.871094 989.210938 2088.289062 1028.792969 2039.464844 1028.792969 C 2015.382812 1028.792969 1993.28125 1019.230469 1977.449219 1003.394531 L 1881.125 1076.621094 C 1884.09375 1083.550781 1885.742188 1091.136719 1885.742188 1099.050781 C 1885.742188 1129.726562 1861 1154.46875 1830.324219 1154.46875 C 1826.695312 1154.46875 1823.066406 1154.136719 1819.765625 1153.476562 L 1765.996094 1272.882812 C 1788.757812 1287.726562 1803.933594 1313.453125 1803.933594 1342.480469 C 1803.933594 1372.828125 1787.4375 1399.546875 1763.027344 1414.058594 L 1789.089844 1480.027344 C 1797.664062 1477.71875 1806.242188 1476.730469 1815.480469 1476.730469 C 1832.632812 1476.730469 1849.125 1481.019531 1863.3125 1488.277344 L 1955.675781 1352.378906 C 1927.636719 1328.957031 1909.824219 1293.664062 1909.824219 1254.082031 Z M 525 736.875 L 524.667969 643.859375 C 559.964844 637.921875 586.6875 606.914062 586.6875 569.972656 C 586.6875 562.054688 585.367188 554.140625 583.058594 546.882812 L 702.804688 484.210938 C 718.308594 505.652344 743.707031 519.503906 772.078125 519.503906 C 779.003906 519.503906 785.601562 518.847656 792.199219 517.195312 L 831.785156 614.832031 C 807.375 629.347656 790.878906 656.0625 790.878906 686.738281 C 790.878906 723.683594 814.960938 755.019531 848.277344 766.234375 L 830.464844 871.785156 C 828.15625 871.785156 825.847656 871.457031 823.207031 871.457031 C 757.890625 871.457031 705.113281 924.230469 705.113281 989.542969 C 705.113281 1054.851562 757.890625 1107.628906 823.207031 1107.628906 C 885.226562 1107.628906 936.027344 1059.800781 940.972656 999.109375 L 1009.257812 997.128906 C 1014.867188 1011.972656 1029.050781 1022.527344 1045.875 1022.527344 C 1057.75 1022.527344 1068.308594 1017.25 1075.5625 1008.671875 L 1164.960938 1044.296875 C 1163.972656 1049.574219 1163.3125 1054.851562 1163.3125 1060.128906 C 1163.3125 1101.691406 1197.289062 1135.664062 1238.855469 1135.664062 C 1280.417969 1135.664062 1314.394531 1101.691406 1314.394531 1060.128906 C 1314.394531 1041.988281 1307.796875 1025.164062 1297.242188 1011.972656 L 1391.917969 902.460938 C 1408.410156 913.347656 1428.203125 919.945312 1449.316406 919.945312 C 1506.382812 919.945312 1552.566406 873.765625 1552.566406 816.699219 C 1552.566406 759.636719 1506.382812 713.457031 1449.316406 713.457031 C 1427.875 713.457031 1407.75 720.054688 1391.257812 731.269531 L 1320.664062 650.457031 C 1324.292969 644.519531 1326.269531 637.261719 1326.269531 629.675781 C 1326.269531 618.128906 1321.324219 607.574219 1313.40625 599.988281 L 1360.578125 497.40625 C 1366.847656 499.054688 1373.445312 500.042969 1380.042969 500.042969 C 1403.132812 500.042969 1423.914062 489.488281 1437.441406 472.996094 L 1512.980469 516.867188 C 1507.703125 529.402344 1504.734375 542.925781 1504.734375 557.4375 C 1504.734375 614.503906 1550.917969 660.679688 1607.988281 660.679688 C 1613.59375 660.679688 1619.203125 660.351562 1624.480469 659.363281 L 1654.167969 761.945312 C 1642.953125 769.53125 1635.695312 782.066406 1635.695312 796.578125 C 1635.695312 813.402344 1645.59375 827.585938 1659.449219 834.511719 L 1647.242188 922.253906 C 1606.996094 923.570312 1574.667969 956.558594 1574.667969 997.128906 C 1574.667969 1001.746094 1575 1006.363281 1575.988281 1010.980469 L 1468.777344 1050.5625 C 1461.519531 1041.328125 1450.304688 1035.722656 1437.769531 1035.722656 C 1415.667969 1035.722656 1397.855469 1053.53125 1397.855469 1075.632812 C 1397.855469 1086.1875 1401.8125 1095.425781 1408.410156 1102.679688 L 1353.980469 1201.636719 C 1348.375 1199.988281 1342.4375 1198.996094 1336.496094 1198.996094 C 1302.851562 1198.996094 1275.800781 1226.042969 1275.800781 1259.6875 C 1275.800781 1293.335938 1302.851562 1320.382812 1336.496094 1320.382812 C 1370.144531 1320.382812 1397.195312 1293.335938 1397.195312 1259.6875 L 1547.621094 1227.695312 C 1551.246094 1233.632812 1555.867188 1238.578125 1561.804688 1241.878906 L 1517.601562 1452.980469 C 1513.972656 1452.652344 1510.011719 1452.320312 1506.054688 1452.320312 C 1473.066406 1452.320312 1443.046875 1466.175781 1421.605469 1488.277344 L 1339.796875 1425.605469 C 1341.117188 1421.644531 1342.105469 1417.027344 1342.105469 1412.738281 C 1342.105469 1390.640625 1324.292969 1372.828125 1302.191406 1372.828125 C 1280.089844 1372.828125 1262.277344 1390.640625 1262.277344 1412.738281 C 1262.277344 1416.699219 1262.933594 1420.328125 1263.925781 1423.953125 L 1212.132812 1459.910156 C 1190.363281 1434.839844 1158.363281 1419.007812 1122.738281 1419.007812 C 1057.421875 1419.007812 1004.640625 1471.78125 1004.640625 1537.09375 C 1004.640625 1538.414062 1004.640625 1539.730469 1004.640625 1540.722656 L 916.234375 1552.925781 C 911.285156 1536.761719 900.730469 1522.578125 887.203125 1513.015625 L 981.550781 1322.03125 C 991.445312 1325.328125 1002.332031 1327.308594 1013.546875 1327.308594 C 1067.976562 1327.308594 1112.179688 1283.109375 1112.179688 1228.683594 C 1112.179688 1174.257812 1067.976562 1130.386719 1013.546875 1130.386719 C 964.726562 1130.386719 924.152344 1166.011719 916.234375 1212.851562 L 838.382812 1210.210938 C 833.433594 1194.378906 818.921875 1183.164062 801.765625 1183.164062 C 780.65625 1183.164062 763.171875 1200.316406 763.171875 1221.757812 C 763.171875 1229.671875 765.480469 1236.601562 769.4375 1242.867188 L 707.089844 1323.679688 C 691.257812 1314.113281 672.785156 1308.835938 653.320312 1308.835938 C 595.261719 1308.835938 548.089844 1356.003906 548.089844 1414.058594 C 548.089844 1414.390625 548.089844 1415.046875 548.089844 1415.378906 L 475.847656 1424.945312 C 467.929688 1399.546875 447.148438 1379.425781 421.089844 1372.828125 L 428.015625 1288.386719 C 445.167969 1284.097656 457.703125 1268.59375 457.703125 1250.453125 C 457.703125 1242.867188 455.394531 1235.609375 451.765625 1229.671875 L 599.222656 1048.253906 C 603.511719 1049.90625 608.128906 1050.5625 612.746094 1050.5625 C 634.519531 1050.5625 652.003906 1033.082031 652.003906 1011.3125 C 652.003906 989.871094 634.519531 972.058594 612.746094 972.058594 C 610.765625 972.058594 608.789062 972.058594 607.140625 972.390625 L 584.378906 928.191406 C 612.085938 909.386719 630.558594 877.394531 630.558594 841.109375 C 630.558594 783.054688 583.386719 735.886719 525.328125 735.886719 C 524.667969 735.886719 524.339844 735.886719 524.007812 735.886719 Z M 855.207031 876.074219 L 873.019531 770.523438 C 873.347656 770.523438 874.007812 770.523438 874.339844 770.523438 C 904.6875 770.523438 931.078125 754.359375 945.921875 730.28125 L 1067.976562 780.746094 C 1066.328125 787.671875 1065.339844 794.601562 1065.339844 802.1875 C 1065.339844 850.34375 1104.261719 889.269531 1152.425781 889.269531 C 1200.589844 889.269531 1239.511719 850.34375 1239.511719 802.1875 C 1239.511719 778.769531 1230.277344 757.65625 1215.433594 741.824219 L 1272.5 668.269531 C 1276.789062 669.917969 1281.40625 670.578125 1286.027344 670.578125 C 1291.632812 670.578125 1296.914062 669.585938 1301.859375 667.277344 L 1372.453125 748.089844 C 1355.960938 766.234375 1346.0625 790.640625 1346.0625 817.03125 C 1346.0625 843.75 1356.289062 867.828125 1372.785156 886.300781 L 1278.109375 995.808594 C 1266.5625 988.882812 1253.367188 984.925781 1238.855469 984.925781 C 1211.472656 984.925781 1187.722656 999.4375 1174.199219 1021.207031 L 1084.800781 985.582031 C 1084.800781 984.925781 1084.800781 984.265625 1084.800781 983.605469 C 1084.800781 961.835938 1067.316406 944.351562 1045.546875 944.351562 C 1028.0625 944.351562 1013.21875 955.898438 1008.269531 972.058594 L 939.984375 974.039062 C 933.71875 926.871094 899.738281 888.9375 854.875 876.074219 Z M 1161.003906 517.195312 L 1250.070312 610.875 C 1247.101562 616.480469 1245.121094 623.078125 1245.121094 630.003906 C 1245.121094 638.25 1247.761719 646.167969 1252.046875 652.765625 L 1194.980469 726.320312 C 1182.445312 719.066406 1167.601562 715.105469 1152.097656 715.105469 C 1120.425781 715.105469 1092.71875 732.257812 1077.542969 757.328125 L 955.488281 706.53125 C 957.136719 700.261719 957.796875 693.335938 957.796875 686.410156 C 957.796875 664.96875 949.550781 645.507812 936.355469 630.664062 L 1026.082031 521.816406 C 1044.554688 534.019531 1066.328125 540.945312 1090.078125 540.945312 C 1116.800781 540.945312 1141.210938 532.039062 1161.003906 516.867188 Z M 1678.582031 755.679688 L 1648.890625 652.765625 C 1666.042969 645.507812 1680.558594 633.632812 1691.445312 618.789062 L 1802.945312 681.132812 C 1799.316406 690.367188 1797.335938 700.59375 1797.335938 711.148438 C 1797.335938 718.40625 1798.324219 725.332031 1799.976562 732.257812 L 1709.589844 770.191406 C 1702 761.285156 1691.117188 755.679688 1678.582031 755.347656 Z M 1476.035156 1682.226562 L 1458.550781 1790.417969 C 1435.460938 1793.058594 1417.316406 1812.847656 1417.316406 1836.597656 C 1417.316406 1858.367188 1432.160156 1876.507812 1452.285156 1881.785156 L 1453.933594 1963.589844 C 1453.273438 1963.917969 1452.285156 1964.25 1451.625 1964.578125 L 1393.894531 1916.421875 C 1396.535156 1910.8125 1397.855469 1904.546875 1397.855469 1897.949219 C 1397.855469 1874.199219 1379.710938 1854.738281 1356.621094 1852.429688 L 1346.722656 1797.675781 C 1379.710938 1786.460938 1403.460938 1755.125 1403.460938 1718.511719 C 1403.460938 1703.335938 1399.503906 1689.152344 1392.246094 1676.949219 L 1424.246094 1651.550781 C 1438.429688 1665.734375 1456.242188 1676.621094 1476.367188 1681.898438 Z M 455.066406 919.285156 L 366.328125 1042.316406 C 359.070312 1039.347656 351.152344 1037.371094 342.90625 1037.371094 C 310.578125 1037.371094 284.1875 1063.757812 284.1875 1096.082031 C 284.1875 1112.578125 291.117188 1127.75 302.332031 1138.304688 L 209.636719 1289.375 C 198.089844 1284.097656 185.226562 1281.460938 171.699219 1281.460938 C 170.710938 1281.460938 170.050781 1281.460938 169.0625 1281.460938 L 161.804688 1236.929688 C 197.101562 1225.714844 222.5 1192.730469 222.5 1154.136719 C 222.5 1114.554688 196.109375 1081.242188 159.824219 1070.683594 L 165.101562 1032.09375 C 166.753906 1032.09375 168.402344 1032.09375 170.378906 1032.09375 C 240.644531 1032.09375 297.714844 975.027344 297.714844 904.769531 C 297.714844 901.472656 297.714844 898.503906 297.382812 895.203125 L 425.707031 872.773438 C 431.3125 890.917969 441.539062 907.078125 455.066406 919.613281 Z M 551.390625 1175.90625 C 551.390625 1134.675781 585.035156 1101.03125 626.269531 1101.03125 C 667.507812 1101.03125 701.152344 1134.675781 701.152344 1175.90625 C 701.152344 1217.136719 667.507812 1250.785156 626.269531 1250.785156 C 585.035156 1250.785156 551.390625 1217.136719 551.390625 1175.90625 Z M 631.550781 673.546875 C 631.550781 651.777344 649.03125 634.292969 670.804688 634.292969 C 692.578125 634.292969 710.058594 651.777344 710.058594 673.546875 C 710.058594 694.984375 692.578125 712.796875 670.804688 712.796875 C 649.363281 712.796875 631.550781 695.316406 631.550781 673.546875 Z M 631.550781 673.546875 " clip-rule="evenodd"/></clipPath><linearGradient x1="39.985145" gradientTransform="matrix(32.987742, 0, 0, 32.985012, 43.047966, 307.741973)" y1="-0.154476" x2="39.673595" gradientUnits="userSpaceOnUse" y2="52.365338" xlink:type="simple" xlink:actuate="onLoad" id="id4" xlink:show="other"><stop stop-opacity="1" stop-color="rgb(100%, 35.699463%, 35.699463%)" offset="0"/><stop stop-opacity="1" stop-color="rgb(100%, 35.699463%, 35.699463%)" offset="0.00726688"/><stop stop-opacity="1" stop-color="rgb(100%, 35.699463%, 35.699463%)" offset="0.0625"/><stop stop-opacity="1" stop-color="rgb(100%, 35.699463%, 35.699463%)" offset="0.09375"/><stop stop-opacity="1" stop-color="rgb(100%, 35.699463%, 35.699463%)" offset="0.109375"/><stop stop-opacity="1" stop-color="rgb(99.806213%, 35.673523%, 35.673523%)" offset="0.117188"/><stop stop-opacity="1" stop-color="rgb(99.267578%, 35.604858%, 35.604858%)" offset="0.121094"/><stop stop-opacity="1" stop-color="rgb(98.922729%, 35.562134%, 35.562134%)" offset="0.125"/><stop stop-opacity="1" stop-color="rgb(98.577881%, 35.517883%, 35.517883%)" offset="0.128906"/><stop stop-opacity="1" stop-color="rgb(98.233032%, 35.473633%, 35.473633%)" offset="0.132812"/><stop stop-opacity="1" stop-color="rgb(97.886658%, 35.429382%, 35.429382%)" offset="0.136719"/><stop stop-opacity="1" stop-color="rgb(97.541809%, 35.385132%, 35.385132%)" offset="0.140625"/><stop stop-opacity="1" stop-color="rgb(97.19696%, 35.340881%, 35.340881%)" offset="0.144531"/><stop stop-opacity="1" stop-color="rgb(96.852112%, 35.298157%, 35.298157%)" offset="0.148438"/><stop stop-opacity="1" stop-color="rgb(96.507263%, 35.253906%, 35.253906%)" offset="0.152344"/><stop stop-opacity="1" stop-color="rgb(96.162415%, 35.209656%, 35.209656%)" offset="0.15625"/><stop stop-opacity="1" stop-color="rgb(95.817566%, 35.165405%, 35.165405%)" offset="0.160156"/><stop stop-opacity="1" stop-color="rgb(95.472717%, 35.121155%, 35.121155%)" offset="0.164062"/><stop stop-opacity="1" stop-color="rgb(95.127869%, 35.076904%, 35.076904%)" offset="0.167969"/><stop stop-opacity="1" stop-color="rgb(94.78302%, 35.03418%, 35.03418%)" offset="0.171875"/><stop stop-opacity="1" stop-color="rgb(94.438171%, 34.989929%, 34.989929%)" offset="0.175781"/><stop stop-opacity="1" stop-color="rgb(94.093323%, 34.945679%, 34.945679%)" offset="0.179688"/><stop stop-opacity="1" stop-color="rgb(93.746948%, 34.901428%, 34.901428%)" offset="0.183594"/><stop stop-opacity="1" stop-color="rgb(93.4021%, 34.857178%, 34.857178%)" offset="0.1875"/><stop stop-opacity="1" stop-color="rgb(93.057251%, 34.812927%, 34.812927%)" offset="0.191406"/><stop stop-opacity="1" stop-color="rgb(92.712402%, 34.770203%, 34.770203%)" offset="0.195312"/><stop stop-opacity="1" stop-color="rgb(92.367554%, 34.725952%, 34.725952%)" offset="0.199219"/><stop stop-opacity="1" stop-color="rgb(92.022705%, 34.681702%, 34.681702%)" offset="0.203125"/><stop stop-opacity="1" stop-color="rgb(91.677856%, 34.637451%, 34.637451%)" offset="0.207031"/><stop stop-opacity="1" stop-color="rgb(91.333008%, 34.593201%, 34.593201%)" offset="0.210938"/><stop stop-opacity="1" stop-color="rgb(90.988159%, 34.54895%, 34.54895%)" offset="0.214844"/><stop stop-opacity="1" stop-color="rgb(90.643311%, 34.506226%, 34.506226%)" offset="0.21875"/><stop stop-opacity="1" stop-color="rgb(90.298462%, 34.461975%, 34.461975%)" offset="0.222656"/><stop stop-opacity="1" stop-color="rgb(89.953613%, 34.417725%, 34.417725%)" offset="0.226562"/><stop stop-opacity="1" stop-color="rgb(89.607239%, 34.373474%, 34.373474%)" offset="0.230469"/><stop stop-opacity="1" stop-color="rgb(89.26239%, 34.329224%, 34.329224%)" offset="0.234375"/><stop stop-opacity="1" stop-color="rgb(88.917542%, 34.284973%, 34.284973%)" offset="0.238281"/><stop stop-opacity="1" stop-color="rgb(88.572693%, 34.242249%, 34.242249%)" offset="0.242188"/><stop stop-opacity="1" stop-color="rgb(88.227844%, 34.197998%, 34.197998%)" offset="0.246094"/><stop stop-opacity="1" stop-color="rgb(87.882996%, 34.153748%, 34.153748%)" offset="0.25"/><stop stop-opacity="1" stop-color="rgb(87.538147%, 34.109497%, 34.109497%)" offset="0.253906"/><stop stop-opacity="1" stop-color="rgb(87.193298%, 34.065247%, 34.065247%)" offset="0.257812"/><stop stop-opacity="1" stop-color="rgb(86.84845%, 34.020996%, 34.020996%)" offset="0.261719"/><stop stop-opacity="1" stop-color="rgb(86.503601%, 33.978271%, 33.978271%)" offset="0.265625"/><stop stop-opacity="1" stop-color="rgb(86.158752%, 33.934021%, 33.934021%)" offset="0.269531"/><stop stop-opacity="1" stop-color="rgb(85.813904%, 33.889771%, 33.889771%)" offset="0.273438"/><stop stop-opacity="1" stop-color="rgb(85.469055%, 33.84552%, 33.84552%)" offset="0.277344"/><stop stop-opacity="1" stop-color="rgb(85.124207%, 33.80127%, 33.80127%)" offset="0.28125"/><stop stop-opacity="1" stop-color="rgb(84.777832%, 33.757019%, 33.757019%)" offset="0.285156"/><stop stop-opacity="1" stop-color="rgb(84.432983%, 33.714294%, 33.714294%)" offset="0.289063"/><stop stop-opacity="1" stop-color="rgb(84.088135%, 33.670044%, 33.670044%)" offset="0.292969"/><stop stop-opacity="1" stop-color="rgb(83.743286%, 33.625793%, 33.625793%)" offset="0.296875"/><stop stop-opacity="1" stop-color="rgb(83.398438%, 33.581543%, 33.581543%)" offset="0.300781"/><stop stop-opacity="1" stop-color="rgb(83.053589%, 33.537292%, 33.537292%)" offset="0.304688"/><stop stop-opacity="1" stop-color="rgb(82.70874%, 33.493042%, 33.493042%)" offset="0.308594"/><stop stop-opacity="1" stop-color="rgb(82.363892%, 33.450317%, 33.450317%)" offset="0.3125"/><stop stop-opacity="1" stop-color="rgb(82.019043%, 33.406067%, 33.406067%)" offset="0.316406"/><stop stop-opacity="1" stop-color="rgb(81.674194%, 33.361816%, 33.361816%)" offset="0.320313"/><stop stop-opacity="1" stop-color="rgb(81.329346%, 33.317566%, 33.317566%)" offset="0.324219"/><stop stop-opacity="1" stop-color="rgb(80.984497%, 33.273315%, 33.273315%)" offset="0.328125"/><stop stop-opacity="1" stop-color="rgb(80.638123%, 33.229065%, 33.229065%)" offset="0.332031"/><stop stop-opacity="1" stop-color="rgb(80.293274%, 33.18634%, 33.18634%)" offset="0.335938"/><stop stop-opacity="1" stop-color="rgb(79.948425%, 33.14209%, 33.14209%)" offset="0.339844"/><stop stop-opacity="1" stop-color="rgb(79.603577%, 33.097839%, 33.097839%)" offset="0.34375"/><stop stop-opacity="1" stop-color="rgb(79.258728%, 33.053589%, 33.053589%)" offset="0.347656"/><stop stop-opacity="1" stop-color="rgb(78.913879%, 33.009338%, 33.009338%)" offset="0.351563"/><stop stop-opacity="1" stop-color="rgb(78.569031%, 32.965088%, 32.965088%)" offset="0.355469"/><stop stop-opacity="1" stop-color="rgb(78.224182%, 32.922363%, 32.922363%)" offset="0.359375"/><stop stop-opacity="1" stop-color="rgb(77.879333%, 32.878113%, 32.878113%)" offset="0.363281"/><stop stop-opacity="1" stop-color="rgb(77.534485%, 32.833862%, 32.833862%)" offset="0.367188"/><stop stop-opacity="1" stop-color="rgb(77.189636%, 32.789612%, 32.789612%)" offset="0.371094"/><stop stop-opacity="1" stop-color="rgb(76.844788%, 32.745361%, 32.745361%)" offset="0.375"/><stop stop-opacity="1" stop-color="rgb(76.498413%, 32.701111%, 32.701111%)" offset="0.378906"/><stop stop-opacity="1" stop-color="rgb(76.153564%, 32.658386%, 32.658386%)" offset="0.382813"/><stop stop-opacity="1" stop-color="rgb(75.808716%, 32.614136%, 32.614136%)" offset="0.386719"/><stop stop-opacity="1" stop-color="rgb(75.463867%, 32.569885%, 32.569885%)" offset="0.390625"/><stop stop-opacity="1" stop-color="rgb(75.119019%, 32.525635%, 32.525635%)" offset="0.394531"/><stop stop-opacity="1" stop-color="rgb(74.77417%, 32.481384%, 32.481384%)" offset="0.398438"/><stop stop-opacity="1" stop-color="rgb(74.429321%, 32.437134%, 32.437134%)" offset="0.402344"/><stop stop-opacity="1" stop-color="rgb(74.084473%, 32.394409%, 32.394409%)" offset="0.40625"/><stop stop-opacity="1" stop-color="rgb(73.739624%, 32.350159%, 32.350159%)" offset="0.410156"/><stop stop-opacity="1" stop-color="rgb(73.394775%, 32.305908%, 32.305908%)" offset="0.414063"/><stop stop-opacity="1" stop-color="rgb(73.049927%, 32.261658%, 32.261658%)" offset="0.417969"/><stop stop-opacity="1" stop-color="rgb(72.705078%, 32.217407%, 32.217407%)" offset="0.421875"/><stop stop-opacity="1" stop-color="rgb(72.360229%, 32.173157%, 32.173157%)" offset="0.425781"/><stop stop-opacity="1" stop-color="rgb(72.015381%, 32.130432%, 32.130432%)" offset="0.429688"/><stop stop-opacity="1" stop-color="rgb(71.669006%, 32.086182%, 32.086182%)" offset="0.433594"/><stop stop-opacity="1" stop-color="rgb(71.324158%, 32.041931%, 32.041931%)" offset="0.4375"/><stop stop-opacity="1" stop-color="rgb(70.979309%, 31.997681%, 31.997681%)" offset="0.441406"/><stop stop-opacity="1" stop-color="rgb(70.63446%, 31.95343%, 31.95343%)" offset="0.445313"/><stop stop-opacity="1" stop-color="rgb(70.289612%, 31.90918%, 31.90918%)" offset="0.449219"/><stop stop-opacity="1" stop-color="rgb(69.944763%, 31.866455%, 31.866455%)" offset="0.453125"/><stop stop-opacity="1" stop-color="rgb(69.599915%, 31.822205%, 31.822205%)" offset="0.457031"/><stop stop-opacity="1" stop-color="rgb(69.255066%, 31.777954%, 31.777954%)" offset="0.460938"/><stop stop-opacity="1" stop-color="rgb(68.910217%, 31.733704%, 31.733704%)" offset="0.464844"/><stop stop-opacity="1" stop-color="rgb(68.565369%, 31.689453%, 31.689453%)" offset="0.46875"/><stop stop-opacity="1" stop-color="rgb(68.22052%, 31.645203%, 31.645203%)" offset="0.472656"/><stop stop-opacity="1" stop-color="rgb(67.875671%, 31.602478%, 31.602478%)" offset="0.476562"/><stop stop-opacity="1" stop-color="rgb(67.529297%, 31.558228%, 31.558228%)" offset="0.480469"/><stop stop-opacity="1" stop-color="rgb(67.184448%, 31.513977%, 31.513977%)" offset="0.484375"/><stop stop-opacity="1" stop-color="rgb(66.8396%, 31.469727%, 31.469727%)" offset="0.488281"/><stop stop-opacity="1" stop-color="rgb(66.494751%, 31.425476%, 31.425476%)" offset="0.492188"/><stop stop-opacity="1" stop-color="rgb(66.149902%, 31.381226%, 31.381226%)" offset="0.496094"/><stop stop-opacity="1" stop-color="rgb(65.805054%, 31.338501%, 31.338501%)" offset="0.5"/><stop stop-opacity="1" stop-color="rgb(65.460205%, 31.29425%, 31.29425%)" offset="0.503906"/><stop stop-opacity="1" stop-color="rgb(65.115356%, 31.25%, 31.25%)" offset="0.507813"/><stop stop-opacity="1" stop-color="rgb(64.770508%, 31.20575%, 31.20575%)" offset="0.511719"/><stop stop-opacity="1" stop-color="rgb(64.425659%, 31.161499%, 31.161499%)" offset="0.515625"/><stop stop-opacity="1" stop-color="rgb(64.080811%, 31.117249%, 31.117249%)" offset="0.519531"/><stop stop-opacity="1" stop-color="rgb(63.735962%, 31.074524%, 31.074524%)" offset="0.523438"/><stop stop-opacity="1" stop-color="rgb(63.391113%, 31.030273%, 31.030273%)" offset="0.527344"/><stop stop-opacity="1" stop-color="rgb(63.046265%, 30.986023%, 30.986023%)" offset="0.53125"/><stop stop-opacity="1" stop-color="rgb(62.69989%, 30.941772%, 30.941772%)" offset="0.535156"/><stop stop-opacity="1" stop-color="rgb(62.355042%, 30.897522%, 30.897522%)" offset="0.539063"/><stop stop-opacity="1" stop-color="rgb(62.010193%, 30.853271%, 30.853271%)" offset="0.542969"/><stop stop-opacity="1" stop-color="rgb(61.665344%, 30.810547%, 30.810547%)" offset="0.546875"/><stop stop-opacity="1" stop-color="rgb(61.320496%, 30.766296%, 30.766296%)" offset="0.550781"/><stop stop-opacity="1" stop-color="rgb(60.975647%, 30.722046%, 30.722046%)" offset="0.554688"/><stop stop-opacity="1" stop-color="rgb(60.630798%, 30.677795%, 30.677795%)" offset="0.558594"/><stop stop-opacity="1" stop-color="rgb(60.28595%, 30.633545%, 30.633545%)" offset="0.5625"/><stop stop-opacity="1" stop-color="rgb(59.941101%, 30.589294%, 30.589294%)" offset="0.566406"/><stop stop-opacity="1" stop-color="rgb(59.596252%, 30.54657%, 30.54657%)" offset="0.570312"/><stop stop-opacity="1" stop-color="rgb(59.251404%, 30.502319%, 30.502319%)" offset="0.574219"/><stop stop-opacity="1" stop-color="rgb(58.906555%, 30.458069%, 30.458069%)" offset="0.578125"/><stop stop-opacity="1" stop-color="rgb(58.560181%, 30.413818%, 30.413818%)" offset="0.582031"/><stop stop-opacity="1" stop-color="rgb(58.215332%, 30.369568%, 30.369568%)" offset="0.585938"/><stop stop-opacity="1" stop-color="rgb(57.870483%, 30.325317%, 30.325317%)" offset="0.589844"/><stop stop-opacity="1" stop-color="rgb(57.525635%, 30.282593%, 30.282593%)" offset="0.59375"/><stop stop-opacity="1" stop-color="rgb(57.180786%, 30.238342%, 30.238342%)" offset="0.597656"/><stop stop-opacity="1" stop-color="rgb(56.835938%, 30.194092%, 30.194092%)" offset="0.601562"/><stop stop-opacity="1" stop-color="rgb(56.491089%, 30.149841%, 30.149841%)" offset="0.605469"/><stop stop-opacity="1" stop-color="rgb(56.14624%, 30.105591%, 30.105591%)" offset="0.609375"/><stop stop-opacity="1" stop-color="rgb(55.801392%, 30.06134%, 30.06134%)" offset="0.613281"/><stop stop-opacity="1" stop-color="rgb(55.456543%, 30.018616%, 30.018616%)" offset="0.617187"/><stop stop-opacity="1" stop-color="rgb(55.111694%, 29.974365%, 29.974365%)" offset="0.621094"/><stop stop-opacity="1" stop-color="rgb(54.766846%, 29.930115%, 29.930115%)" offset="0.625"/><stop stop-opacity="1" stop-color="rgb(54.420471%, 29.885864%, 29.885864%)" offset="0.628906"/><stop stop-opacity="1" stop-color="rgb(54.075623%, 29.841614%, 29.841614%)" offset="0.632813"/><stop stop-opacity="1" stop-color="rgb(53.730774%, 29.797363%, 29.797363%)" offset="0.636719"/><stop stop-opacity="1" stop-color="rgb(53.385925%, 29.754639%, 29.754639%)" offset="0.640625"/><stop stop-opacity="1" stop-color="rgb(53.041077%, 29.710388%, 29.710388%)" offset="0.644531"/><stop stop-opacity="1" stop-color="rgb(52.696228%, 29.666138%, 29.666138%)" offset="0.648438"/><stop stop-opacity="1" stop-color="rgb(52.351379%, 29.621887%, 29.621887%)" offset="0.652344"/><stop stop-opacity="1" stop-color="rgb(52.006531%, 29.577637%, 29.577637%)" offset="0.65625"/><stop stop-opacity="1" stop-color="rgb(51.661682%, 29.533386%, 29.533386%)" offset="0.660156"/><stop stop-opacity="1" stop-color="rgb(51.316833%, 29.490662%, 29.490662%)" offset="0.664063"/><stop stop-opacity="1" stop-color="rgb(50.971985%, 29.446411%, 29.446411%)" offset="0.667969"/><stop stop-opacity="1" stop-color="rgb(50.627136%, 29.402161%, 29.402161%)" offset="0.671875"/><stop stop-opacity="1" stop-color="rgb(50.282288%, 29.35791%, 29.35791%)" offset="0.675781"/><stop stop-opacity="1" stop-color="rgb(49.937439%, 29.31366%, 29.31366%)" offset="0.679688"/><stop stop-opacity="1" stop-color="rgb(49.591064%, 29.269409%, 29.269409%)" offset="0.683594"/><stop stop-opacity="1" stop-color="rgb(49.246216%, 29.226685%, 29.226685%)" offset="0.6875"/><stop stop-opacity="1" stop-color="rgb(48.901367%, 29.182434%, 29.182434%)" offset="0.691406"/><stop stop-opacity="1" stop-color="rgb(48.556519%, 29.138184%, 29.138184%)" offset="0.695312"/><stop stop-opacity="1" stop-color="rgb(48.21167%, 29.093933%, 29.093933%)" offset="0.699219"/><stop stop-opacity="1" stop-color="rgb(47.866821%, 29.049683%, 29.049683%)" offset="0.703125"/><stop stop-opacity="1" stop-color="rgb(47.521973%, 29.005432%, 29.005432%)" offset="0.707031"/><stop stop-opacity="1" stop-color="rgb(47.177124%, 28.962708%, 28.962708%)" offset="0.710938"/><stop stop-opacity="1" stop-color="rgb(46.832275%, 28.918457%, 28.918457%)" offset="0.714844"/><stop stop-opacity="1" stop-color="rgb(46.487427%, 28.874207%, 28.874207%)" offset="0.71875"/><stop stop-opacity="1" stop-color="rgb(46.142578%, 28.829956%, 28.829956%)" offset="0.722656"/><stop stop-opacity="1" stop-color="rgb(45.797729%, 28.785706%, 28.785706%)" offset="0.726562"/><stop stop-opacity="1" stop-color="rgb(45.451355%, 28.741455%, 28.741455%)" offset="0.730469"/><stop stop-opacity="1" stop-color="rgb(45.106506%, 28.69873%, 28.69873%)" offset="0.734375"/><stop stop-opacity="1" stop-color="rgb(44.761658%, 28.65448%, 28.65448%)" offset="0.738281"/><stop stop-opacity="1" stop-color="rgb(44.416809%, 28.610229%, 28.610229%)" offset="0.742187"/><stop stop-opacity="1" stop-color="rgb(44.07196%, 28.565979%, 28.565979%)" offset="0.746094"/><stop stop-opacity="1" stop-color="rgb(43.727112%, 28.521729%, 28.521729%)" offset="0.75"/><stop stop-opacity="1" stop-color="rgb(43.382263%, 28.477478%, 28.477478%)" offset="0.753906"/><stop stop-opacity="1" stop-color="rgb(43.037415%, 28.434753%, 28.434753%)" offset="0.757813"/><stop stop-opacity="1" stop-color="rgb(42.692566%, 28.390503%, 28.390503%)" offset="0.761719"/><stop stop-opacity="1" stop-color="rgb(42.347717%, 28.346252%, 28.346252%)" offset="0.765625"/><stop stop-opacity="1" stop-color="rgb(42.002869%, 28.302002%, 28.302002%)" offset="0.769531"/><stop stop-opacity="1" stop-color="rgb(41.65802%, 28.257751%, 28.257751%)" offset="0.773438"/><stop stop-opacity="1" stop-color="rgb(41.311646%, 28.213501%, 28.213501%)" offset="0.777344"/><stop stop-opacity="1" stop-color="rgb(40.966797%, 28.170776%, 28.170776%)" offset="0.78125"/><stop stop-opacity="1" stop-color="rgb(40.621948%, 28.126526%, 28.126526%)" offset="0.785156"/><stop stop-opacity="1" stop-color="rgb(40.2771%, 28.082275%, 28.082275%)" offset="0.789063"/><stop stop-opacity="1" stop-color="rgb(39.932251%, 28.038025%, 28.038025%)" offset="0.792969"/><stop stop-opacity="1" stop-color="rgb(39.587402%, 27.993774%, 27.993774%)" offset="0.796875"/><stop stop-opacity="1" stop-color="rgb(39.242554%, 27.949524%, 27.949524%)" offset="0.800781"/><stop stop-opacity="1" stop-color="rgb(38.897705%, 27.906799%, 27.906799%)" offset="0.804688"/><stop stop-opacity="1" stop-color="rgb(38.552856%, 27.862549%, 27.862549%)" offset="0.808594"/><stop stop-opacity="1" stop-color="rgb(38.208008%, 27.818298%, 27.818298%)" offset="0.8125"/><stop stop-opacity="1" stop-color="rgb(37.863159%, 27.774048%, 27.774048%)" offset="0.816406"/><stop stop-opacity="1" stop-color="rgb(37.518311%, 27.729797%, 27.729797%)" offset="0.820312"/><stop stop-opacity="1" stop-color="rgb(37.173462%, 27.685547%, 27.685547%)" offset="0.824219"/><stop stop-opacity="1" stop-color="rgb(36.828613%, 27.642822%, 27.642822%)" offset="0.828125"/><stop stop-opacity="1" stop-color="rgb(36.482239%, 27.598572%, 27.598572%)" offset="0.832031"/><stop stop-opacity="1" stop-color="rgb(36.13739%, 27.554321%, 27.554321%)" offset="0.835938"/><stop stop-opacity="1" stop-color="rgb(35.792542%, 27.510071%, 27.510071%)" offset="0.839844"/><stop stop-opacity="1" stop-color="rgb(35.447693%, 27.46582%, 27.46582%)" offset="0.84375"/><stop stop-opacity="1" stop-color="rgb(35.102844%, 27.42157%, 27.42157%)" offset="0.847656"/><stop stop-opacity="1" stop-color="rgb(34.757996%, 27.378845%, 27.378845%)" offset="0.851562"/><stop stop-opacity="1" stop-color="rgb(34.413147%, 27.334595%, 27.334595%)" offset="0.855469"/><stop stop-opacity="1" stop-color="rgb(34.068298%, 27.290344%, 27.290344%)" offset="0.859375"/><stop stop-opacity="1" stop-color="rgb(33.72345%, 27.246094%, 27.246094%)" offset="0.863281"/><stop stop-opacity="1" stop-color="rgb(33.378601%, 27.201843%, 27.201843%)" offset="0.867187"/><stop stop-opacity="1" stop-color="rgb(33.033752%, 27.157593%, 27.157593%)" offset="0.871094"/><stop stop-opacity="1" stop-color="rgb(32.688904%, 27.114868%, 27.114868%)" offset="0.875"/><stop stop-opacity="1" stop-color="rgb(32.342529%, 27.070618%, 27.070618%)" offset="0.878906"/><stop stop-opacity="1" stop-color="rgb(31.997681%, 27.026367%, 27.026367%)" offset="0.882813"/><stop stop-opacity="1" stop-color="rgb(31.652832%, 26.982117%, 26.982117%)" offset="0.886719"/><stop stop-opacity="1" stop-color="rgb(31.307983%, 26.937866%, 26.937866%)" offset="0.890625"/><stop stop-opacity="1" stop-color="rgb(30.963135%, 26.893616%, 26.893616%)" offset="0.894531"/><stop stop-opacity="1" stop-color="rgb(30.618286%, 26.850891%, 26.850891%)" offset="0.898438"/><stop stop-opacity="1" stop-color="rgb(30.273438%, 26.806641%, 26.806641%)" offset="0.902344"/><stop stop-opacity="1" stop-color="rgb(29.928589%, 26.76239%, 26.76239%)" offset="0.90625"/><stop stop-opacity="1" stop-color="rgb(29.58374%, 26.71814%, 26.71814%)" offset="0.910156"/><stop stop-opacity="1" stop-color="rgb(29.238892%, 26.673889%, 26.673889%)" offset="0.914063"/><stop stop-opacity="1" stop-color="rgb(28.894043%, 26.629639%, 26.629639%)" offset="0.917969"/><stop stop-opacity="1" stop-color="rgb(28.549194%, 26.585388%, 26.585388%)" offset="0.921875"/><stop stop-opacity="1" stop-color="rgb(28.204346%, 26.541138%, 26.541138%)" offset="0.925781"/><stop stop-opacity="1" stop-color="rgb(27.859497%, 26.498413%, 26.498413%)" offset="0.929688"/><stop stop-opacity="1" stop-color="rgb(27.513123%, 26.454163%, 26.454163%)" offset="0.933594"/><stop stop-opacity="1" stop-color="rgb(27.168274%, 26.409912%, 26.409912%)" offset="0.9375"/><stop stop-opacity="1" stop-color="rgb(26.823425%, 26.365662%, 26.365662%)" offset="0.941406"/><stop stop-opacity="1" stop-color="rgb(26.478577%, 26.321411%, 26.321411%)" offset="0.945312"/><stop stop-opacity="1" stop-color="rgb(26.38855%, 26.309204%, 26.309204%)" offset="0.953125"/><stop stop-opacity="1" stop-color="rgb(26.298523%, 26.298523%, 26.298523%)" offset="0.96875"/><stop stop-opacity="1" stop-color="rgb(26.298523%, 26.298523%, 26.298523%)" offset="0.992733"/><stop stop-opacity="1" stop-color="rgb(26.298523%, 26.298523%, 26.298523%)" offset="1"/></linearGradient></defs><g clip-path="url(#id2)"><g clip-path="url(#id3)"><path fill="url(#id4)" d="M 43.046875 307.410156 L 43.046875 2027.25 L 2165.480469 2027.25 L 2165.480469 307.410156 Z M 43.046875 307.410156 " fill-rule="nonzero"/></g></g><g fill="rgb(26.269531%, 26.269531%, 26.269531%)" fill-opacity="1"><g transform="translate(2334.840122, 1221.52936)"><g><path d="M 45.132812 -44.171875 C 138.277344 3.839844 223.738281 8.640625 262.148438 5.761719 C 390.824219 -0.960938 469.5625 -88.34375 469.5625 -202.613281 C 469.5625 -312.082031 377.378906 -373.539062 270.792969 -412.910156 C 231.421875 -426.351562 197.8125 -443.636719 193.972656 -482.046875 C 191.089844 -520.457031 213.175781 -555.984375 262.148438 -558.867188 C 283.273438 -559.828125 326.484375 -560.789062 402.347656 -530.058594 L 419.628906 -662.574219 C 331.289062 -693.300781 284.234375 -693.300781 248.707031 -691.382812 C 134.433594 -685.621094 54.734375 -597.277344 54.734375 -482.046875 C 54.734375 -366.816406 150.757812 -312.082031 258.308594 -272.710938 C 296.71875 -259.269531 326.484375 -241.984375 329.367188 -202.613281 C 333.207031 -165.164062 298.636719 -136.355469 258.308594 -133.476562 C 226.621094 -130.59375 141.15625 -132.515625 62.417969 -188.210938 Z M 45.132812 -44.171875 "/></g></g></g><g fill="rgb(26.269531%, 26.269531%, 26.269531%)" fill-opacity="1"><g transform="translate(2977.250649, 1221.52936)"><g><path d="M 15.363281 0 L 170.925781 0 L 197.8125 -73.941406 L 425.390625 -73.941406 L 453.238281 0 L 607.839844 0 L 318.804688 -711.546875 L 304.398438 -711.546875 Z M 247.746094 -202.613281 L 312.082031 -381.21875 L 374.5 -202.613281 Z M 247.746094 -202.613281 "/></g></g></g><g fill="rgb(26.269531%, 26.269531%, 26.269531%)" fill-opacity="1"><g transform="translate(3738.730866, 1221.52936)"><g><path d="M 391.78125 -395.625 L 120.992188 -697.144531 L 76.820312 -697.144531 L 76.820312 0 L 216.058594 0 L 216.058594 -383.140625 L 391.78125 -198.773438 L 567.507812 -383.140625 L 566.550781 0 L 705.785156 0 L 705.785156 -697.144531 L 662.574219 -697.144531 Z M 391.78125 -395.625 "/></g></g></g><g fill="rgb(26.269531%, 26.269531%, 26.269531%)" fill-opacity="1"><g transform="translate(4656.72982, 1221.52936)"><g><path d="M 76.820312 -686.582031 L 76.820312 0 L 432.113281 0 L 432.113281 -137.316406 L 214.136719 -137.316406 L 214.136719 -686.582031 Z M 76.820312 -686.582031 "/></g></g></g><g fill="rgb(39.99939%, 39.99939%, 39.99939%)" fill-opacity="1"><g transform="translate(2338.820947, 1786.57532)"><g><path d="M 249.21875 -209.015625 L 223.4375 0 L 191.28125 0 L 205.703125 -116.984375 L 122.53125 -16.359375 L 121.96875 -16.359375 L 64.875 -112 L 51.015625 0 L 19.953125 0 L 45.46875 -209.015625 L 45.734375 -209.015625 L 128.90625 -66.53125 L 248.671875 -209.015625 Z M 249.21875 -209.015625 "/></g></g></g><g fill="rgb(39.99939%, 39.99939%, 39.99939%)" fill-opacity="1"><g transform="translate(2632.890024, 1786.57532)"><g><path d="M 77.90625 -23.5625 C 85.476562 -23.5625 93.332031 -26.148438 101.46875 -31.328125 L 112.546875 -7.203125 C 106.640625 -4.066406 100.359375 -1.625 93.703125 0.125 C 87.046875 1.882812 80.671875 2.765625 74.578125 2.765625 C 55.347656 2.765625 40.050781 -2.40625 28.6875 -12.75 C 17.320312 -23.101562 11.640625 -37.890625 11.640625 -57.109375 C 11.640625 -67.453125 14.179688 -77.660156 19.265625 -87.734375 C 24.347656 -97.804688 32.0625 -106.078125 42.40625 -112.546875 C 52.757812 -119.015625 65.328125 -122.25 80.109375 -122.25 C 114.484375 -122.25 134.535156 -103.210938 140.265625 -65.140625 L 47.40625 -40.46875 C 50.363281 -34.738281 54.613281 -30.488281 60.15625 -27.71875 C 65.695312 -24.945312 71.613281 -23.5625 77.90625 -23.5625 Z M 79.28125 -97.859375 C 67.820312 -97.859375 58.859375 -94.207031 52.390625 -86.90625 C 45.921875 -79.601562 42.6875 -70.867188 42.6875 -60.703125 L 42.6875 -58.765625 L 106.734375 -76.234375 C 104.703125 -82.890625 101.28125 -88.15625 96.46875 -92.03125 C 91.664062 -95.914062 85.9375 -97.859375 79.28125 -97.859375 Z M 79.28125 -97.859375 "/></g></g></g><g fill="rgb(39.99939%, 39.99939%, 39.99939%)" fill-opacity="1"><g transform="translate(2815.826514, 1786.57532)"><g><path d="M 166.328125 -216.234375 L 139.71875 0 L 108.671875 0 L 110.609375 -15.25 C 96.929688 -3.238281 83.164062 2.765625 69.3125 2.765625 C 58.40625 2.765625 48.5625 0.226562 39.78125 -4.84375 C 31 -9.925781 24.113281 -16.8125 19.125 -25.5 C 14.132812 -34.1875 11.640625 -43.613281 11.640625 -53.78125 C 11.640625 -65.425781 14.410156 -76.515625 19.953125 -87.046875 C 25.503906 -97.578125 33.5 -106.125 43.9375 -112.6875 C 54.382812 -119.25 66.535156 -122.53125 80.390625 -122.53125 C 88.890625 -122.53125 96.742188 -121.003906 103.953125 -117.953125 C 111.160156 -114.898438 117.164062 -110.789062 121.96875 -105.625 L 135.28125 -216.234375 Z M 117.546875 -72.90625 C 116.242188 -80.300781 112.539062 -86.351562 106.4375 -91.0625 C 100.34375 -95.78125 92.863281 -98.140625 84 -98.140625 C 72.164062 -98.140625 62.457031 -94.582031 54.875 -87.46875 C 47.300781 -80.351562 43.515625 -70.878906 43.515625 -59.046875 C 43.515625 -48.328125 46.796875 -39.734375 53.359375 -33.265625 C 59.921875 -26.796875 68.5625 -23.5625 79.28125 -23.5625 C 86.675781 -23.5625 93.515625 -25.6875 99.796875 -29.9375 C 106.078125 -34.1875 111.066406 -40.101562 114.765625 -47.6875 Z M 117.546875 -72.90625 "/></g></g></g><g fill="rgb(39.99939%, 39.99939%, 39.99939%)" fill-opacity="1"><g transform="translate(3018.717028, 1786.57532)"><g><path d="M 59.609375 -117.265625 L 45.1875 0 L 14.140625 0 L 28.546875 -117.265625 Z M 30.734375 -157.515625 C 30.921875 -162.503906 32.769531 -166.660156 36.28125 -169.984375 C 39.789062 -173.304688 44.222656 -174.96875 49.578125 -174.96875 C 54.203125 -174.96875 58.222656 -173.675781 61.640625 -171.09375 C 65.054688 -168.507812 66.765625 -164.722656 66.765625 -159.734375 C 66.765625 -154.742188 64.960938 -150.535156 61.359375 -147.109375 C 57.753906 -143.691406 53.273438 -141.984375 47.921875 -141.984375 C 43.484375 -142.171875 39.507812 -143.554688 36 -146.140625 C 32.488281 -148.734375 30.734375 -152.523438 30.734375 -157.515625 Z M 30.734375 -157.515625 "/></g></g></g><g fill="rgb(39.99939%, 39.99939%, 39.99939%)" fill-opacity="1"><g transform="translate(3127.103161, 1786.57532)"><g><path d="M 112.828125 -7.765625 C 107.460938 -4.253906 101.175781 -1.53125 93.96875 0.40625 C 86.769531 2.351562 79.65625 3.328125 72.625 3.328125 C 63.945312 3.328125 54.894531 1.523438 45.46875 -2.078125 C 36.039062 -5.679688 28 -11.734375 21.34375 -20.234375 C 14.6875 -28.734375 11.359375 -39.726562 11.359375 -53.21875 C 11.359375 -64.3125 13.945312 -74.941406 19.125 -85.109375 C 24.300781 -95.273438 31.832031 -103.59375 41.71875 -110.0625 C 51.601562 -116.53125 63.296875 -119.765625 76.796875 -119.765625 C 96.929688 -119.765625 113.097656 -113.847656 125.296875 -102.015625 L 107.5625 -82.890625 C 104.238281 -86.023438 100.125 -88.703125 95.21875 -90.921875 C 90.320312 -93.140625 84.828125 -94.25 78.734375 -94.25 C 72.453125 -94.25 66.535156 -92.539062 60.984375 -89.125 C 55.441406 -85.707031 51.003906 -81.039062 47.671875 -75.125 C 44.347656 -69.207031 42.6875 -62.644531 42.6875 -55.4375 C 42.6875 -46.019531 45.96875 -38.078125 52.53125 -31.609375 C 59.09375 -25.140625 67.640625 -21.90625 78.171875 -21.90625 C 85.753906 -21.90625 92.867188 -24.03125 99.515625 -28.28125 Z M 112.828125 -7.765625 "/></g></g></g><g fill="rgb(39.99939%, 39.99939%, 39.99939%)" fill-opacity="1"><g transform="translate(3292.025596, 1786.57532)"><g><path d="M 152.1875 -117.265625 L 138.0625 0 L 107 0 L 108.953125 -16.90625 C 104.140625 -11.914062 97.710938 -7.390625 89.671875 -3.328125 C 81.640625 0.734375 72.171875 2.675781 61.265625 2.5 C 52.765625 2.675781 44.675781 0.457031 37 -4.15625 C 29.332031 -8.78125 23.1875 -15.476562 18.5625 -24.25 C 13.945312 -33.03125 11.640625 -43.148438 11.640625 -54.609375 C 11.640625 -65.878906 14.363281 -76.734375 19.8125 -87.171875 C 25.269531 -97.617188 32.988281 -106.125 42.96875 -112.6875 C 52.945312 -119.25 64.40625 -122.53125 77.34375 -122.53125 C 96.9375 -122.53125 110.890625 -115.320312 119.203125 -100.90625 L 123.640625 -117.265625 Z M 115.59375 -72.078125 C 114.300781 -79.648438 110.648438 -85.703125 104.640625 -90.234375 C 98.640625 -94.765625 91.390625 -97.03125 82.890625 -97.03125 C 74.015625 -97.03125 66.664062 -94.992188 60.84375 -90.921875 C 55.019531 -86.859375 50.722656 -81.820312 47.953125 -75.8125 C 45.179688 -69.8125 43.796875 -63.945312 43.796875 -58.21875 C 43.796875 -47.5 46.984375 -38.859375 53.359375 -32.296875 C 59.734375 -25.734375 68.097656 -22.453125 78.453125 -22.453125 C 85.660156 -22.453125 92.3125 -24.578125 98.40625 -28.828125 C 104.507812 -33.078125 109.222656 -38.992188 112.546875 -46.578125 Z M 115.59375 -72.078125 "/></g></g></g><g fill="rgb(39.99939%, 39.99939%, 39.99939%)" fill-opacity="1"><g transform="translate(3493.253255, 1786.57532)"><g><path d="M 71.796875 -216.234375 L 45.46875 0 L 14.421875 0 L 40.75 -216.234375 Z M 71.796875 -216.234375 "/></g></g></g><g fill="rgb(39.99939%, 39.99939%, 39.99939%)" fill-opacity="1"><g transform="translate(3601.916672, 1786.57532)"><g/></g></g><g fill="rgb(39.99939%, 39.99939%, 39.99939%)" fill-opacity="1"><g transform="translate(3719.725645, 1786.57532)"><g><path d="M 168 -136.953125 C 166.519531 -124.378906 162.453125 -112.78125 155.796875 -102.15625 C 149.140625 -91.53125 139.898438 -83.445312 128.078125 -77.90625 L 167.71875 0 L 130.015625 0 L 93.140625 -70.140625 L 60.984375 -70.140625 L 52.109375 0 L 19.953125 0 L 44.625 -201.8125 L 101.46875 -201.8125 C 122.164062 -201.8125 138.519531 -196.914062 150.53125 -187.125 C 162.539062 -177.332031 168.546875 -163.75 168.546875 -146.375 C 168.546875 -144.519531 168.363281 -141.378906 168 -136.953125 Z M 134.734375 -140.546875 C 134.734375 -148.492188 132.28125 -155.515625 127.375 -161.609375 C 122.476562 -167.710938 114.394531 -170.765625 103.125 -170.765625 L 73.1875 -170.765625 L 64.59375 -101.1875 L 93.421875 -101.1875 C 103.398438 -101.1875 111.484375 -103.359375 117.671875 -107.703125 C 123.867188 -112.046875 128.257812 -117.21875 130.84375 -123.21875 C 133.4375 -129.226562 134.734375 -135.003906 134.734375 -140.546875 Z M 134.734375 -140.546875 "/></g></g></g><g fill="rgb(39.99939%, 39.99939%, 39.99939%)" fill-opacity="1"><g transform="translate(3940.353098, 1786.57532)"><g><path d="M 77.90625 -23.5625 C 85.476562 -23.5625 93.332031 -26.148438 101.46875 -31.328125 L 112.546875 -7.203125 C 106.640625 -4.066406 100.359375 -1.625 93.703125 0.125 C 87.046875 1.882812 80.671875 2.765625 74.578125 2.765625 C 55.347656 2.765625 40.050781 -2.40625 28.6875 -12.75 C 17.320312 -23.101562 11.640625 -37.890625 11.640625 -57.109375 C 11.640625 -67.453125 14.179688 -77.660156 19.265625 -87.734375 C 24.347656 -97.804688 32.0625 -106.078125 42.40625 -112.546875 C 52.757812 -119.015625 65.328125 -122.25 80.109375 -122.25 C 114.484375 -122.25 134.535156 -103.210938 140.265625 -65.140625 L 47.40625 -40.46875 C 50.363281 -34.738281 54.613281 -30.488281 60.15625 -27.71875 C 65.695312 -24.945312 71.613281 -23.5625 77.90625 -23.5625 Z M 79.28125 -97.859375 C 67.820312 -97.859375 58.859375 -94.207031 52.390625 -86.90625 C 45.921875 -79.601562 42.6875 -70.867188 42.6875 -60.703125 L 42.6875 -58.765625 L 106.734375 -76.234375 C 104.703125 -82.890625 101.28125 -88.15625 96.46875 -92.03125 C 91.664062 -95.914062 85.9375 -97.859375 79.28125 -97.859375 Z M 79.28125 -97.859375 "/></g></g></g><g fill="rgb(39.99939%, 39.99939%, 39.99939%)" fill-opacity="1"><g transform="translate(4123.289646, 1786.57532)"><g><path d="M 52.671875 2.5 C 45.097656 2.5 36.828125 0.925781 27.859375 -2.21875 C 18.898438 -5.363281 11.367188 -11 5.265625 -19.125 L 20.515625 -35.765625 C 26.054688 -29.109375 31.457031 -24.71875 36.71875 -22.59375 C 41.988281 -20.46875 47.304688 -19.40625 52.671875 -19.40625 C 58.398438 -19.40625 62.601562 -20.789062 65.28125 -23.5625 C 67.96875 -26.332031 69.3125 -29.382812 69.3125 -32.71875 C 69.3125 -35.851562 68.203125 -38.4375 65.984375 -40.46875 C 63.765625 -42.5 61.40625 -44.023438 58.90625 -45.046875 C 56.414062 -46.066406 51.75 -47.867188 44.90625 -50.453125 C 27.71875 -57.285156 19.125 -68.191406 19.125 -83.171875 C 19.125 -88.710938 20.507812 -94.4375 23.28125 -100.34375 C 26.050781 -106.257812 30.71875 -111.296875 37.28125 -115.453125 C 43.84375 -119.617188 52.300781 -121.703125 62.65625 -121.703125 C 81.132812 -121.703125 95.914062 -116.617188 107 -106.453125 L 92.875 -88.4375 C 89.175781 -92.5 85.109375 -95.5 80.671875 -97.4375 C 76.234375 -99.382812 71.707031 -100.359375 67.09375 -100.359375 C 61.726562 -100.359375 57.660156 -99.109375 54.890625 -96.609375 C 52.117188 -94.117188 50.734375 -91.113281 50.734375 -87.59375 C 50.921875 -83.90625 52.582031 -81 55.71875 -78.875 C 58.863281 -76.75 63.578125 -74.484375 69.859375 -72.078125 C 71.148438 -71.703125 73.09375 -70.960938 75.6875 -69.859375 C 83.8125 -66.160156 90.046875 -61.910156 94.390625 -57.109375 C 98.734375 -52.304688 100.90625 -46.019531 100.90625 -38.25 C 100.90625 -31.414062 99.148438 -24.898438 95.640625 -18.703125 C 92.128906 -12.515625 86.769531 -7.429688 79.5625 -3.453125 C 72.351562 0.515625 63.390625 2.5 52.671875 2.5 Z M 52.671875 2.5 "/></g></g></g><g fill="rgb(39.99939%, 39.99939%, 39.99939%)" fill-opacity="1"><g transform="translate(4275.463703, 1786.57532)"><g><path d="M 77.90625 -23.5625 C 85.476562 -23.5625 93.332031 -26.148438 101.46875 -31.328125 L 112.546875 -7.203125 C 106.640625 -4.066406 100.359375 -1.625 93.703125 0.125 C 87.046875 1.882812 80.671875 2.765625 74.578125 2.765625 C 55.347656 2.765625 40.050781 -2.40625 28.6875 -12.75 C 17.320312 -23.101562 11.640625 -37.890625 11.640625 -57.109375 C 11.640625 -67.453125 14.179688 -77.660156 19.265625 -87.734375 C 24.347656 -97.804688 32.0625 -106.078125 42.40625 -112.546875 C 52.757812 -119.015625 65.328125 -122.25 80.109375 -122.25 C 114.484375 -122.25 134.535156 -103.210938 140.265625 -65.140625 L 47.40625 -40.46875 C 50.363281 -34.738281 54.613281 -30.488281 60.15625 -27.71875 C 65.695312 -24.945312 71.613281 -23.5625 77.90625 -23.5625 Z M 79.28125 -97.859375 C 67.820312 -97.859375 58.859375 -94.207031 52.390625 -86.90625 C 45.921875 -79.601562 42.6875 -70.867188 42.6875 -60.703125 L 42.6875 -58.765625 L 106.734375 -76.234375 C 104.703125 -82.890625 101.28125 -88.15625 96.46875 -92.03125 C 91.664062 -95.914062 85.9375 -97.859375 79.28125 -97.859375 Z M 79.28125 -97.859375 "/></g></g></g><g fill="rgb(39.99939%, 39.99939%, 39.99939%)" fill-opacity="1"><g transform="translate(4458.400251, 1786.57532)"><g><path d="M 152.1875 -117.265625 L 138.0625 0 L 107 0 L 108.953125 -16.90625 C 104.140625 -11.914062 97.710938 -7.390625 89.671875 -3.328125 C 81.640625 0.734375 72.171875 2.675781 61.265625 2.5 C 52.765625 2.675781 44.675781 0.457031 37 -4.15625 C 29.332031 -8.78125 23.1875 -15.476562 18.5625 -24.25 C 13.945312 -33.03125 11.640625 -43.148438 11.640625 -54.609375 C 11.640625 -65.878906 14.363281 -76.734375 19.8125 -87.171875 C 25.269531 -97.617188 32.988281 -106.125 42.96875 -112.6875 C 52.945312 -119.25 64.40625 -122.53125 77.34375 -122.53125 C 96.9375 -122.53125 110.890625 -115.320312 119.203125 -100.90625 L 123.640625 -117.265625 Z M 115.59375 -72.078125 C 114.300781 -79.648438 110.648438 -85.703125 104.640625 -90.234375 C 98.640625 -94.765625 91.390625 -97.03125 82.890625 -97.03125 C 74.015625 -97.03125 66.664062 -94.992188 60.84375 -90.921875 C 55.019531 -86.859375 50.722656 -81.820312 47.953125 -75.8125 C 45.179688 -69.8125 43.796875 -63.945312 43.796875 -58.21875 C 43.796875 -47.5 46.984375 -38.859375 53.359375 -32.296875 C 59.734375 -25.734375 68.097656 -22.453125 78.453125 -22.453125 C 85.660156 -22.453125 92.3125 -24.578125 98.40625 -28.828125 C 104.507812 -33.078125 109.222656 -38.992188 112.546875 -46.578125 Z M 115.59375 -72.078125 "/></g></g></g><g fill="rgb(39.99939%, 39.99939%, 39.99939%)" fill-opacity="1"><g transform="translate(4659.62791, 1786.57532)"><g><path d="M 54.890625 -89.8125 C 60.429688 -99.789062 68.191406 -107.738281 78.171875 -113.65625 C 88.148438 -119.570312 97.300781 -122.53125 105.625 -122.53125 L 100.359375 -91.484375 C 91.847656 -92.222656 84.035156 -90.695312 76.921875 -86.90625 C 69.804688 -83.113281 64.03125 -77.9375 59.59375 -71.375 C 55.164062 -64.820312 52.488281 -57.847656 51.5625 -50.453125 L 45.1875 0 L 14.421875 0 L 28.546875 -117.265625 L 56.546875 -117.265625 Z M 54.890625 -89.8125 "/></g></g></g><g fill="rgb(39.99939%, 39.99939%, 39.99939%)" fill-opacity="1"><g transform="translate(4803.210639, 1786.57532)"><g><path d="M 112.828125 -7.765625 C 107.460938 -4.253906 101.175781 -1.53125 93.96875 0.40625 C 86.769531 2.351562 79.65625 3.328125 72.625 3.328125 C 63.945312 3.328125 54.894531 1.523438 45.46875 -2.078125 C 36.039062 -5.679688 28 -11.734375 21.34375 -20.234375 C 14.6875 -28.734375 11.359375 -39.726562 11.359375 -53.21875 C 11.359375 -64.3125 13.945312 -74.941406 19.125 -85.109375 C 24.300781 -95.273438 31.832031 -103.59375 41.71875 -110.0625 C 51.601562 -116.53125 63.296875 -119.765625 76.796875 -119.765625 C 96.929688 -119.765625 113.097656 -113.847656 125.296875 -102.015625 L 107.5625 -82.890625 C 104.238281 -86.023438 100.125 -88.703125 95.21875 -90.921875 C 90.320312 -93.140625 84.828125 -94.25 78.734375 -94.25 C 72.453125 -94.25 66.535156 -92.539062 60.984375 -89.125 C 55.441406 -85.707031 51.003906 -81.039062 47.671875 -75.125 C 44.347656 -69.207031 42.6875 -62.644531 42.6875 -55.4375 C 42.6875 -46.019531 45.96875 -38.078125 52.53125 -31.609375 C 59.09375 -25.140625 67.640625 -21.90625 78.171875 -21.90625 C 85.753906 -21.90625 92.867188 -24.03125 99.515625 -28.28125 Z M 112.828125 -7.765625 "/></g></g></g><g fill="rgb(39.99939%, 39.99939%, 39.99939%)" fill-opacity="1"><g transform="translate(4968.133075, 1786.57532)"><g><path d="M 105.625 -122.25 C 115.96875 -122.25 124.328125 -119.335938 130.703125 -113.515625 C 137.078125 -107.691406 140.265625 -100.160156 140.265625 -90.921875 L 140 -87.046875 L 129.46875 0 L 98.40625 0 L 107.5625 -76.234375 C 107.925781 -82.335938 106.722656 -87.097656 103.953125 -90.515625 C 101.179688 -93.929688 96.65625 -95.640625 90.375 -95.640625 C 80.582031 -95.640625 72.082031 -91.523438 64.875 -83.296875 C 57.664062 -75.078125 53.320312 -64.59375 51.84375 -51.84375 L 45.46875 0 L 14.421875 0 L 40.75 -216.234375 L 71.25 -216.234375 L 57.109375 -98.6875 C 62.460938 -105.894531 69.296875 -111.625 77.609375 -115.875 C 85.929688 -120.125 95.269531 -122.25 105.625 -122.25 Z M 105.625 -122.25 "/></g></g></g></svg>